<svg xmlns="http://www.w3.org/2000/svg" width="48.833" height="48.833" viewBox="0 0 48.833 48.833">
  <g id="Group_153" data-name="Group 153" transform="translate(-705 -563)">
    <g id="Group_150" data-name="Group 150" transform="translate(705 563)">
      <path id="Path_6" data-name="Path 6" d="M24.416,0A24.416,24.416,0,1,1,0,24.416,24.416,24.416,0,0,1,24.416,0Z" fill="#1561b2"/>
      <path id="Path_4" data-name="Path 4" d="M23.856,42.566q.706-.136,1.4-.314,1.175-.327,2.313-.771t2.229-.994a24.416,24.416,0,0,0,2.118-1.216q1.026-.659,1.983-1.419a24.418,24.418,0,0,0,1.836-1.614q.875-.85,1.661-1.784a24.415,24.415,0,0,0,1.478-1.943q.689-1.007,1.276-2.078t1.061-2.2q.476-1.125.839-2.293.31-1.023.529-2.071l-14.5-14.5a13.232,13.232,0,0,0-22.513,8A13.462,13.462,0,0,0,5.5,18.726,13.182,13.182,0,0,0,9.371,28.08Z" transform="translate(5.691 5.695)" fill="#10559e"/>
    </g>
    <g id="Group_147" data-name="Group 147" transform="translate(712.282 570.282)">
      <path id="Path_2" data-name="Path 2" d="M24.313,6.539C19.869,4.7,18.341,4.7,13.9,6.539S8.379,9.456,6.539,13.9s-1.839,5.965,0,10.408S9.456,29.829,13.9,31.67s5.965,1.839,10.408,0,5.524-2.914,7.365-7.358,1.839-5.972,0-10.415-2.914-5.518-7.358-7.358ZM19.1,26.5A1.815,1.815,0,1,1,20.92,24.69,1.816,1.816,0,0,1,19.1,26.5Zm1.4-6H17.709V12.124H20.5Z" transform="translate(-1.97 -1.97)" fill="#fffefe"/>
      <path id="Path_3" data-name="Path 3" d="M0,0H34.27V34.27H0Z" fill="none"/>
    </g>
  </g>
</svg>
