<svg xmlns="http://www.w3.org/2000/svg" width="19.91" height="19.911" viewBox="0 0 19.91 19.911">
  <path id="Icon_awesome-tools" data-name="Icon awesome-tools" d="M19.484,15.387,14.93,10.833a2.887,2.887,0,0,0-3.321-.541L7.464,6.148V3.733L2.487,0,0,2.489,3.731,7.466H6.146l4.145,4.145a2.893,2.893,0,0,0,.541,3.321l4.553,4.553a1.446,1.446,0,0,0,2.049,0l2.049-2.049a1.453,1.453,0,0,0,0-2.049ZM12.9,8.749a4.091,4.091,0,0,1,2.912,1.205l.754.754a5.5,5.5,0,0,0,1.7-1.147A5.592,5.592,0,0,0,19.74,4.246a.465.465,0,0,0-.782-.214L16.066,6.925l-2.64-.439-.439-2.64L15.879.953a.469.469,0,0,0-.222-.785,5.6,5.6,0,0,0-5.312,1.474,5.51,5.51,0,0,0-1.6,4.028l3.192,3.192A4.236,4.236,0,0,1,12.9,8.749Zm-4.04,3.189-2.2-2.2L.726,15.663a2.488,2.488,0,1,0,3.519,3.519l4.806-4.806a4.176,4.176,0,0,1-.194-2.438ZM2.487,18.354a.933.933,0,1,1,.933-.933A.936.936,0,0,1,2.487,18.354Z" transform="translate(0.004)" fill="#fff"/>
</svg>
